# xmcd
#
# Track frame offsets:
#	150
#	18162
#	34588
#	50965
#	68581
#	85993
#	102882
#	121141
#	137800
#	151462
#	169474
#	185900
#	202277
#	219893
#	237305
#	254194
#	272453
#	289112
#
# Disc length: 4036 seconds
#
# Revision: 1
# Processed by: cddbd v1.5.2PL0 Copyright (c) Steve Scherf et al.
# Submitted via: audiograbber 1.83.01
#
DISCID=130fc212
DTITLE=Various Artist - Pop Hits Monthly 0311c
DYEAR=2003
DGENRE=karaoke
TTITLE0=I Love This Bar - Toby Keith
TTITLE1=Cowboys Like Us - George Strait
TTITLE2=Tennessee River Run - Darryl Worley
TTITLE3=Every Friday Afternoon - Craig Morgan
TTITLE4=Can you Hear Me When I Talk To You - Ashley Gearing
TTITLE5=I'm Gonna Take That Mountain - Reba McEntire
TTITLE6=I Love You This Much - Jimmy Wayne
TTITLE7=Half A Heart Tattoo - Jennifer Harrison
TTITLE8=I Wanna Do It - Terri Clark
TTITLE9=I Love This Bar - Toby Keith (vocal)
TTITLE10=Cowboys Like Us - George Strait (vocal)
TTITLE11=Tennessee River Run - Darryl Worley (vocal)
TTITLE12=Every Friday Afternoon - Craig Morgan (vocal)
TTITLE13=Can You Hear Me When I Talk To You - Ashley Gearing (vocal)
TTITLE14=I'm Gonna Take That Mountainn - Reba McEntire (vocal)
TTITLE15=I Love You This Much - Jimmy Wayne (vocal)
TTITLE16=Half A Heart Taoo - Jennifer Harrison (vocal)
TTITLE17=I Wanna Do It - Terri Clark (vocal)
EXTD=
EXTT0=
EXTT1=
EXTT2=
EXTT3=
EXTT4=
EXTT5=
EXTT6=
EXTT7=
EXTT8=
EXTT9=
EXTT10=
EXTT11=
EXTT12=
EXTT13=
EXTT14=
EXTT15=
EXTT16=
EXTT17=
PLAYORDER=
